<svg width="1594" height="820" viewBox="0 0 1594 820" fill="none" xmlns="http://www.w3.org/2000/svg">
<g clip-path="url(#clip0_2040_14968)">
<path d="M67.8457 -2V67.8457H-2V-2H67.8457ZM-0.630859 66.4756H66.4756V-0.630859H-0.630859V66.4756Z" fill="black" fill-opacity="0.02"/>
<path d="M137.691 -2V67.8457H67.8457V-2H137.691ZM69.2148 66.4756H136.321V-0.630859H69.2148V66.4756Z" fill="black" fill-opacity="0.02"/>
<path d="M207.537 -2V67.8457H137.691V-2H207.537ZM139.061 66.4756H206.167V-0.630859H139.061V66.4756Z" fill="black" fill-opacity="0.02"/>
<path d="M277.383 -2V67.8457H207.537V-2H277.383ZM208.906 66.4756H276.013V-0.630859H208.906V66.4756Z" fill="black" fill-opacity="0.02"/>
<path d="M347.229 -2V67.8457H277.383V-2H347.229ZM278.752 66.4756H345.858V-0.630859H278.752V66.4756Z" fill="black" fill-opacity="0.02"/>
<path d="M417.074 -2V67.8457H347.229V-2H417.074ZM348.598 66.4756H415.704V-0.630859H348.598V66.4756Z" fill="black" fill-opacity="0.02"/>
<path d="M486.92 -2V67.8457H417.074V-2H486.92ZM418.443 66.4756H485.55V-0.630859H418.443V66.4756Z" fill="black" fill-opacity="0.02"/>
<path d="M556.766 -2V67.8457H486.92V-2H556.766ZM488.289 66.4756H555.396V-0.630859H488.289V66.4756Z" fill="black" fill-opacity="0.02"/>
<path d="M626.611 -2V67.8457H556.766V-2H626.611ZM558.135 66.4756H625.241V-0.630859H558.135V66.4756Z" fill="black" fill-opacity="0.02"/>
<path d="M696.457 -2V67.8457H626.611V-2H696.457ZM627.98 66.4756H695.087V-0.630859H627.98V66.4756Z" fill="black" fill-opacity="0.02"/>
<path d="M766.303 -2V67.8457H696.457V-2H766.303ZM697.826 66.4756H764.933V-0.630859H697.826V66.4756Z" fill="black" fill-opacity="0.02"/>
<path d="M836.148 -2V67.8457H766.303V-2H836.148ZM767.672 66.4756H834.778V-0.630859H767.672V66.4756Z" fill="black" fill-opacity="0.02"/>
<path d="M905.994 -2V67.8457H836.148V-2H905.994ZM837.518 66.4756H904.624V-0.630859H837.518V66.4756Z" fill="black" fill-opacity="0.02"/>
<path d="M975.84 -2V67.8457H905.994V-2H975.84ZM907.363 66.4756H974.47V-0.630859H907.363V66.4756Z" fill="black" fill-opacity="0.02"/>
<path d="M1045.69 -2V67.8457H975.84V-2H1045.69ZM977.209 66.4756H1044.32V-0.630859H977.209V66.4756Z" fill="black" fill-opacity="0.02"/>
<path d="M1115.53 -2V67.8457H1045.69V-2H1115.53ZM1047.05 66.4756H1114.16V-0.630859H1047.05V66.4756Z" fill="black" fill-opacity="0.02"/>
<path d="M1185.38 -2V67.8457H1115.53V-2H1185.38ZM1116.9 66.4756H1184.01V-0.630859H1116.9V66.4756Z" fill="black" fill-opacity="0.02"/>
<path d="M1255.22 -2V67.8457H1185.38V-2H1255.22ZM1186.75 66.4756H1253.85V-0.630859H1186.75V66.4756Z" fill="black" fill-opacity="0.02"/>
<path d="M1325.07 -2V67.8457H1255.22V-2H1325.07ZM1256.59 66.4756H1323.7V-0.630859H1256.59V66.4756Z" fill="black" fill-opacity="0.02"/>
<path d="M1394.91 -2V67.8457H1325.07V-2H1394.91ZM1326.44 66.4756H1393.54V-0.630859H1326.44V66.4756Z" fill="black" fill-opacity="0.02"/>
<path d="M1464.76 -2V67.8457H1394.91V-2H1464.76ZM1396.28 66.4756H1463.39V-0.630859H1396.28V66.4756Z" fill="black" fill-opacity="0.02"/>
<path d="M67.8457 66.4766V136.322H-2V66.4766H67.8457ZM-0.630859 134.952H66.4756V67.8457H-0.630859V134.952Z" fill="black" fill-opacity="0.02"/>
<path d="M137.691 66.4766V136.322H67.8457V66.4766H137.691ZM69.2148 134.952H136.321V67.8457H69.2148V134.952Z" fill="black" fill-opacity="0.02"/>
<path d="M137.691 66.4766H206.168V134.953H137.691V66.4766Z" fill="black" fill-opacity="0.03"/>
<path d="M276.014 66.4766V136.322H206.168V66.4766H276.014ZM207.537 134.952H274.644V67.8457H207.537V134.952Z" fill="black" fill-opacity="0.02"/>
<path d="M345.859 66.4766V136.322H276.014V66.4766H345.859ZM277.383 134.952H344.489V67.8457H277.383V134.952Z" fill="black" fill-opacity="0.02"/>
<path d="M415.705 66.4766V136.322H345.859V66.4766H415.705ZM347.229 134.952H414.335V67.8457H347.229V134.952Z" fill="black" fill-opacity="0.02"/>
<path d="M485.551 66.4766V136.322H415.705V66.4766H485.551ZM417.074 134.952H484.181V67.8457H417.074V134.952Z" fill="black" fill-opacity="0.02"/>
<path d="M555.396 66.4766V136.322H485.551V66.4766H555.396ZM486.92 134.952H554.026V67.8457H486.92V134.952Z" fill="black" fill-opacity="0.02"/>
<path d="M625.242 66.4766V136.322H555.396V66.4766H625.242ZM556.766 134.952H623.872V67.8457H556.766V134.952Z" fill="black" fill-opacity="0.02"/>
<path d="M695.088 66.4766V136.322H625.242V66.4766H695.088ZM626.611 134.952H693.718V67.8457H626.611V134.952Z" fill="black" fill-opacity="0.02"/>
<path d="M695.088 66.4766H763.564V134.953H695.088V66.4766Z" fill="black" fill-opacity="0.03"/>
<path d="M833.409 66.4766V136.322H763.563V66.4766H833.409ZM764.933 134.952H832.039V67.8457H764.933V134.952Z" fill="black" fill-opacity="0.02"/>
<path d="M903.255 66.4766V136.322H833.409V66.4766H903.255ZM834.778 134.952H901.885V67.8457H834.778V134.952Z" fill="black" fill-opacity="0.02"/>
<path d="M973.101 66.4766V136.322H903.255V66.4766H973.101ZM904.624 134.952H971.73V67.8457H904.624V134.952Z" fill="black" fill-opacity="0.02"/>
<path d="M1042.95 66.4766V136.322H973.101V66.4766H1042.95ZM974.47 134.952H1041.58V67.8457H974.47V134.952Z" fill="black" fill-opacity="0.02"/>
<path d="M1112.79 66.4766V136.322H1042.95V66.4766H1112.79ZM1044.32 134.952H1111.42V67.8457H1044.32V134.952Z" fill="black" fill-opacity="0.02"/>
<path d="M1182.64 66.4766V136.322H1112.79V66.4766H1182.64ZM1114.16 134.952H1181.27V67.8457H1114.16V134.952Z" fill="black" fill-opacity="0.02"/>
<path d="M1252.48 66.4766V136.322H1182.64V66.4766H1252.48ZM1184.01 134.952H1251.11V67.8457H1184.01V134.952Z" fill="black" fill-opacity="0.02"/>
<path d="M1322.33 66.4766V136.322H1252.48V66.4766H1322.33ZM1253.85 134.952H1320.96V67.8457H1253.85V134.952Z" fill="black" fill-opacity="0.02"/>
<path d="M1392.17 66.4766V136.322H1322.33V66.4766H1392.17ZM1323.7 134.952H1390.8V67.8457H1323.7V134.952Z" fill="black" fill-opacity="0.02"/>
<path d="M1462.02 66.4766V136.322H1392.17V66.4766H1462.02ZM1393.54 134.952H1460.65V67.8457H1393.54V134.952Z" fill="black" fill-opacity="0.02"/>
<path d="M1531.87 66.4766V136.322H1462.02V66.4766H1531.87ZM1463.39 134.952H1530.5V67.8457H1463.39V134.952Z" fill="black" fill-opacity="0.02"/>
<path d="M1601.71 66.4766V136.322H1531.87V66.4766H1601.71ZM1533.24 134.952H1600.34V67.8457H1533.24V134.952Z" fill="black" fill-opacity="0.02"/>
<path d="M67.8457 134.953V204.799H-2V134.953H67.8457ZM-0.630859 203.429H66.4756V136.322H-0.630859V203.429Z" fill="black" fill-opacity="0.02"/>
<path d="M137.691 134.953V204.799H67.8457V134.953H137.691ZM69.2148 203.429H136.321V136.322H69.2148V203.429Z" fill="black" fill-opacity="0.02"/>
<path d="M207.537 134.953V204.799H137.691V134.953H207.537ZM139.061 203.429H206.167V136.322H139.061V203.429Z" fill="black" fill-opacity="0.02"/>
<path d="M277.383 134.953V204.799H207.537V134.953H277.383ZM208.906 203.429H276.013V136.322H208.906V203.429Z" fill="black" fill-opacity="0.02"/>
<path d="M347.229 134.953V204.799H277.383V134.953H347.229ZM278.752 203.429H345.858V136.322H278.752V203.429Z" fill="black" fill-opacity="0.02"/>
<path d="M417.074 134.953V204.799H347.229V134.953H417.074ZM348.598 203.429H415.704V136.322H348.598V203.429Z" fill="black" fill-opacity="0.02"/>
<path d="M486.92 134.953V204.799H417.074V134.953H486.92ZM418.443 203.429H485.55V136.322H418.443V203.429Z" fill="black" fill-opacity="0.02"/>
<path d="M556.766 134.953V204.799H486.92V134.953H556.766ZM488.289 203.429H555.396V136.322H488.289V203.429Z" fill="black" fill-opacity="0.02"/>
<path d="M626.611 134.953V204.799H556.766V134.953H626.611ZM558.135 203.429H625.241V136.322H558.135V203.429Z" fill="black" fill-opacity="0.02"/>
<path d="M696.457 134.953V204.799H626.611V134.953H696.457ZM627.98 203.429H695.087V136.322H627.98V203.429Z" fill="black" fill-opacity="0.02"/>
<path d="M766.303 134.953V204.799H696.457V134.953H766.303ZM697.826 203.429H764.933V136.322H697.826V203.429Z" fill="black" fill-opacity="0.02"/>
<path d="M836.148 134.953V204.799H766.303V134.953H836.148ZM767.672 203.429H834.778V136.322H767.672V203.429Z" fill="black" fill-opacity="0.02"/>
<path d="M905.994 134.953V204.799H836.148V134.953H905.994ZM837.518 203.429H904.624V136.322H837.518V203.429Z" fill="black" fill-opacity="0.02"/>
<path d="M975.84 134.953V204.799H905.994V134.953H975.84ZM907.363 203.429H974.47V136.322H907.363V203.429Z" fill="black" fill-opacity="0.02"/>
<path d="M1045.69 134.953V204.799H975.84V134.953H1045.69ZM977.209 203.429H1044.32V136.322H977.209V203.429Z" fill="black" fill-opacity="0.02"/>
<path d="M1115.53 134.953V204.799H1045.69V134.953H1115.53ZM1047.05 203.429H1114.16V136.322H1047.05V203.429Z" fill="black" fill-opacity="0.02"/>
<path d="M1115.53 134.953H1184.01V203.429H1115.53V134.953Z" fill="black" fill-opacity="0.03"/>
<path d="M1253.85 134.953V204.799H1184.01V134.953H1253.85ZM1185.38 203.429H1252.48V136.322H1185.38V203.429Z" fill="black" fill-opacity="0.02"/>
<path d="M1323.7 134.953V204.799H1253.85V134.953H1323.7ZM1255.22 203.429H1322.33V136.322H1255.22V203.429Z" fill="black" fill-opacity="0.02"/>
<path d="M1393.54 134.953V204.799H1323.7V134.953H1393.54ZM1325.07 203.429H1392.17V136.322H1325.07V203.429Z" fill="black" fill-opacity="0.02"/>
<path d="M1463.39 134.953V204.799H1393.54V134.953H1463.39ZM1394.91 203.429H1462.02V136.322H1394.91V203.429Z" fill="black" fill-opacity="0.02"/>
<path d="M1533.24 134.953V204.799H1463.39V134.953H1533.24ZM1464.76 203.429H1531.87V136.322H1464.76V203.429Z" fill="black" fill-opacity="0.02"/>
<path d="M67.8457 203.43V273.275H-2V203.43H67.8457ZM-0.630859 271.905H66.4756V204.799H-0.630859V271.905Z" fill="black" fill-opacity="0.02"/>
<path d="M137.691 203.43V273.275H67.8457V203.43H137.691ZM69.2148 271.905H136.321V204.799H69.2148V271.905Z" fill="black" fill-opacity="0.02"/>
<path d="M207.537 203.43V273.275H137.691V203.43H207.537ZM139.061 271.905H206.167V204.799H139.061V271.905Z" fill="black" fill-opacity="0.02"/>
<path d="M277.383 203.43V273.275H207.537V203.43H277.383ZM208.906 271.905H276.013V204.799H208.906V271.905Z" fill="black" fill-opacity="0.02"/>
<path d="M347.229 203.43V273.275H277.383V203.43H347.229ZM278.752 271.905H345.858V204.799H278.752V271.905Z" fill="black" fill-opacity="0.02"/>
<path d="M417.074 203.43V273.275H347.229V203.43H417.074ZM348.598 271.905H415.704V204.799H348.598V271.905Z" fill="black" fill-opacity="0.02"/>
<path d="M486.92 203.43V273.275H417.074V203.43H486.92ZM418.443 271.905H485.55V204.799H418.443V271.905Z" fill="black" fill-opacity="0.02"/>
<path d="M556.766 203.43V273.275H486.92V203.43H556.766ZM488.289 271.905H555.396V204.799H488.289V271.905Z" fill="black" fill-opacity="0.02"/>
<path d="M626.611 203.43V273.275H556.766V203.43H626.611ZM558.135 271.905H625.241V204.799H558.135V271.905Z" fill="black" fill-opacity="0.02"/>
<path d="M696.457 203.43V273.275H626.611V203.43H696.457ZM627.98 271.905H695.087V204.799H627.98V271.905Z" fill="black" fill-opacity="0.02"/>
<path d="M766.303 203.43V273.275H696.457V203.43H766.303ZM697.826 271.905H764.933V204.799H697.826V271.905Z" fill="black" fill-opacity="0.02"/>
<path d="M836.148 203.43V273.275H766.303V203.43H836.148ZM767.672 271.905H834.778V204.799H767.672V271.905Z" fill="black" fill-opacity="0.02"/>
<path d="M905.994 203.43V273.275H836.148V203.43H905.994ZM837.518 271.905H904.624V204.799H837.518V271.905Z" fill="black" fill-opacity="0.02"/>
<path d="M975.84 203.43V273.275H905.994V203.43H975.84ZM907.363 271.905H974.47V204.799H907.363V271.905Z" fill="black" fill-opacity="0.02"/>
<path d="M1045.69 203.43V273.275H975.84V203.43H1045.69ZM977.209 271.905H1044.32V204.799H977.209V271.905Z" fill="black" fill-opacity="0.02"/>
<path d="M1115.53 203.43V273.275H1045.69V203.43H1115.53ZM1047.05 271.905H1114.16V204.799H1047.05V271.905Z" fill="black" fill-opacity="0.02"/>
<path d="M1185.38 203.43V273.275H1115.53V203.43H1185.38ZM1116.9 271.905H1184.01V204.799H1116.9V271.905Z" fill="black" fill-opacity="0.02"/>
<path d="M1255.22 203.43V273.275H1185.38V203.43H1255.22ZM1186.75 271.905H1253.85V204.799H1186.75V271.905Z" fill="black" fill-opacity="0.02"/>
<path d="M1325.07 203.43V273.275H1255.22V203.43H1325.07ZM1256.59 271.905H1323.7V204.799H1256.59V271.905Z" fill="black" fill-opacity="0.02"/>
<path d="M1394.91 203.43V273.275H1325.07V203.43H1394.91ZM1326.44 271.905H1393.54V204.799H1326.44V271.905Z" fill="black" fill-opacity="0.02"/>
<path d="M1464.76 203.43V273.275H1394.91V203.43H1464.76ZM1396.28 271.905H1463.39V204.799H1396.28V271.905Z" fill="black" fill-opacity="0.02"/>
<path d="M67.8457 271.906V341.752H-2V271.906H67.8457ZM-0.630859 340.382H66.4756V273.275H-0.630859V340.382Z" fill="black" fill-opacity="0.02"/>
<path d="M137.691 271.906V341.752H67.8457V271.906H137.691ZM69.2148 340.382H136.321V273.275H69.2148V340.382Z" fill="black" fill-opacity="0.02"/>
<path d="M207.537 271.906V341.752H137.691V271.906H207.537ZM139.061 340.382H206.167V273.275H139.061V340.382Z" fill="black" fill-opacity="0.02"/>
<path d="M207.537 271.906H276.013V340.382H207.537V271.906Z" fill="black" fill-opacity="0.03"/>
<path d="M345.859 271.906V341.752H276.014V271.906H345.859ZM277.383 340.382H344.489V273.275H277.383V340.382Z" fill="black" fill-opacity="0.02"/>
<path d="M415.705 271.906V341.752H345.859V271.906H415.705ZM347.229 340.382H414.335V273.275H347.229V340.382Z" fill="black" fill-opacity="0.02"/>
<path d="M485.551 271.906V341.752H415.705V271.906H485.551ZM417.074 340.382H484.181V273.275H417.074V340.382Z" fill="black" fill-opacity="0.02"/>
<path d="M555.396 271.906V341.752H485.551V271.906H555.396ZM486.92 340.382H554.026V273.275H486.92V340.382Z" fill="black" fill-opacity="0.02"/>
<path d="M625.242 271.906V341.752H555.396V271.906H625.242ZM556.766 340.382H623.872V273.275H556.766V340.382Z" fill="black" fill-opacity="0.02"/>
<path d="M695.088 271.906V341.752H625.242V271.906H695.088ZM626.611 340.382H693.718V273.275H626.611V340.382Z" fill="black" fill-opacity="0.02"/>
<path d="M764.934 271.906V341.752H695.088V271.906H764.934ZM696.457 340.382H763.563V273.275H696.457V340.382Z" fill="black" fill-opacity="0.02"/>
<path d="M834.779 271.906V341.752H764.934V271.906H834.779ZM766.303 340.382H833.409V273.275H766.303V340.382Z" fill="black" fill-opacity="0.02"/>
<path d="M904.625 271.906V341.752H834.779V271.906H904.625ZM836.148 340.382H903.255V273.275H836.148V340.382Z" fill="black" fill-opacity="0.02"/>
<path d="M904.625 271.906H973.101V340.382H904.625V271.906Z" fill="black" fill-opacity="0.03"/>
<path d="M1042.95 271.906V341.752H973.101V271.906H1042.95ZM974.47 340.382H1041.58V273.275H974.47V340.382Z" fill="black" fill-opacity="0.02"/>
<path d="M1112.79 271.906V341.752H1042.95V271.906H1112.79ZM1044.32 340.382H1111.42V273.275H1044.32V340.382Z" fill="black" fill-opacity="0.02"/>
<path d="M1182.64 271.906V341.752H1112.79V271.906H1182.64ZM1114.16 340.382H1181.27V273.275H1114.16V340.382Z" fill="black" fill-opacity="0.02"/>
<path d="M1252.48 271.906V341.752H1182.64V271.906H1252.48ZM1184.01 340.382H1251.11V273.275H1184.01V340.382Z" fill="black" fill-opacity="0.02"/>
<path d="M1322.33 271.906V341.752H1252.48V271.906H1322.33ZM1253.85 340.382H1320.96V273.275H1253.85V340.382Z" fill="black" fill-opacity="0.02"/>
<path d="M1392.17 271.906V341.752H1322.33V271.906H1392.17ZM1323.7 340.382H1390.8V273.275H1323.7V340.382Z" fill="black" fill-opacity="0.02"/>
<path d="M1462.02 271.906V341.752H1392.17V271.906H1462.02ZM1393.54 340.382H1460.65V273.275H1393.54V340.382Z" fill="black" fill-opacity="0.02"/>
<path d="M1531.87 271.906V341.752H1462.02V271.906H1531.87ZM1463.39 340.382H1530.5V273.275H1463.39V340.382Z" fill="black" fill-opacity="0.02"/>
<path d="M1601.71 271.906V341.752H1531.87V271.906H1601.71ZM1533.24 340.382H1600.34V273.275H1533.24V340.382Z" fill="black" fill-opacity="0.02"/>
<path d="M67.8457 340.383V410.229H-2V340.383H67.8457ZM-0.630859 408.858H66.4756V341.752H-0.630859V408.858Z" fill="black" fill-opacity="0.02"/>
<path d="M137.691 340.383V410.229H67.8457V340.383H137.691ZM69.2148 408.858H136.321V341.752H69.2148V408.858Z" fill="black" fill-opacity="0.02"/>
<path d="M207.537 340.383V410.229H137.691V340.383H207.537ZM139.061 408.858H206.167V341.752H139.061V408.858Z" fill="black" fill-opacity="0.02"/>
<path d="M277.383 340.383V410.229H207.537V340.383H277.383ZM208.906 408.858H276.013V341.752H208.906V408.858Z" fill="black" fill-opacity="0.02"/>
<path d="M347.229 340.383V410.229H277.383V340.383H347.229ZM278.752 408.858H345.858V341.752H278.752V408.858Z" fill="black" fill-opacity="0.02"/>
<path d="M417.074 340.383V410.229H347.229V340.383H417.074ZM348.598 408.858H415.704V341.752H348.598V408.858Z" fill="black" fill-opacity="0.02"/>
<path d="M486.92 340.383V410.229H417.074V340.383H486.92ZM418.443 408.858H485.55V341.752H418.443V408.858Z" fill="black" fill-opacity="0.02"/>
<path d="M556.766 340.383V410.229H486.92V340.383H556.766ZM488.289 408.858H555.396V341.752H488.289V408.858Z" fill="black" fill-opacity="0.02"/>
<path d="M626.611 340.383V410.229H556.766V340.383H626.611ZM558.135 408.858H625.241V341.752H558.135V408.858Z" fill="black" fill-opacity="0.02"/>
<path d="M696.457 340.383V410.229H626.611V340.383H696.457ZM627.98 408.858H695.087V341.752H627.98V408.858Z" fill="black" fill-opacity="0.02"/>
<path d="M766.303 340.383V410.229H696.457V340.383H766.303ZM697.826 408.858H764.933V341.752H697.826V408.858Z" fill="black" fill-opacity="0.02"/>
<path d="M836.148 340.383V410.229H766.303V340.383H836.148ZM767.672 408.858H834.778V341.752H767.672V408.858Z" fill="black" fill-opacity="0.02"/>
<path d="M905.994 340.383V410.229H836.148V340.383H905.994ZM837.518 408.858H904.624V341.752H837.518V408.858Z" fill="black" fill-opacity="0.02"/>
<path d="M975.84 340.383V410.229H905.994V340.383H975.84ZM907.363 408.858H974.47V341.752H907.363V408.858Z" fill="black" fill-opacity="0.02"/>
<path d="M1045.69 340.383V410.229H975.84V340.383H1045.69ZM977.209 408.858H1044.32V341.752H977.209V408.858Z" fill="black" fill-opacity="0.02"/>
<path d="M1115.53 340.383V410.229H1045.69V340.383H1115.53ZM1047.05 408.858H1114.16V341.752H1047.05V408.858Z" fill="black" fill-opacity="0.02"/>
<path d="M1185.38 340.383V410.229H1115.53V340.383H1185.38ZM1116.9 408.858H1184.01V341.752H1116.9V408.858Z" fill="black" fill-opacity="0.02"/>
<path d="M1255.22 340.383V410.229H1185.38V340.383H1255.22ZM1186.75 408.858H1253.85V341.752H1186.75V408.858Z" fill="black" fill-opacity="0.02"/>
<path d="M1255.22 340.383H1323.7V408.859H1255.22V340.383Z" fill="black" fill-opacity="0.03"/>
<path d="M1393.54 340.383V410.229H1323.7V340.383H1393.54ZM1325.07 408.858H1392.17V341.752H1325.07V408.858Z" fill="black" fill-opacity="0.02"/>
<path d="M1463.39 340.383V410.229H1393.54V340.383H1463.39ZM1394.91 408.858H1462.02V341.752H1394.91V408.858Z" fill="black" fill-opacity="0.02"/>
<path d="M1533.24 340.383V410.229H1463.39V340.383H1533.24ZM1464.76 408.858H1531.87V341.752H1464.76V408.858Z" fill="black" fill-opacity="0.02"/>
<path d="M67.8457 408.855V478.701H-2V408.855H67.8457ZM-0.630859 477.331H66.4756V410.225H-0.630859V477.331Z" fill="black" fill-opacity="0.02"/>
<path d="M137.691 408.855V478.701H67.8457V408.855H137.691ZM69.2148 477.331H136.321V410.225H69.2148V477.331Z" fill="black" fill-opacity="0.02"/>
<path d="M207.537 408.855V478.701H137.691V408.855H207.537ZM139.061 477.331H206.167V410.225H139.061V477.331Z" fill="black" fill-opacity="0.02"/>
<path d="M277.383 408.855V478.701H207.537V408.855H277.383ZM208.906 477.331H276.013V410.225H208.906V477.331Z" fill="black" fill-opacity="0.02"/>
<path d="M347.229 408.855V478.701H277.383V408.855H347.229ZM278.752 477.331H345.858V410.225H278.752V477.331Z" fill="black" fill-opacity="0.02"/>
<path d="M417.074 408.855V478.701H347.229V408.855H417.074ZM348.598 477.331H415.704V410.225H348.598V477.331Z" fill="black" fill-opacity="0.02"/>
<path d="M486.92 408.855V478.701H417.074V408.855H486.92ZM418.443 477.331H485.55V410.225H418.443V477.331Z" fill="black" fill-opacity="0.02"/>
<path d="M556.766 408.855V478.701H486.92V408.855H556.766ZM488.289 477.331H555.396V410.225H488.289V477.331Z" fill="black" fill-opacity="0.02"/>
<path d="M626.611 408.855V478.701H556.766V408.855H626.611ZM558.135 477.331H625.241V410.225H558.135V477.331Z" fill="black" fill-opacity="0.02"/>
<path d="M696.457 408.855V478.701H626.611V408.855H696.457ZM627.98 477.331H695.087V410.225H627.98V477.331Z" fill="black" fill-opacity="0.02"/>
<path d="M766.303 408.855V478.701H696.457V408.855H766.303ZM697.826 477.331H764.933V410.225H697.826V477.331Z" fill="black" fill-opacity="0.02"/>
<path d="M836.148 408.855V478.701H766.303V408.855H836.148ZM767.672 477.331H834.778V410.225H767.672V477.331Z" fill="black" fill-opacity="0.02"/>
<path d="M905.994 408.855V478.701H836.148V408.855H905.994ZM837.518 477.331H904.624V410.225H837.518V477.331Z" fill="black" fill-opacity="0.02"/>
<path d="M975.84 408.855V478.701H905.994V408.855H975.84ZM907.363 477.331H974.47V410.225H907.363V477.331Z" fill="black" fill-opacity="0.02"/>
<path d="M1045.69 408.855V478.701H975.84V408.855H1045.69ZM977.209 477.331H1044.32V410.225H977.209V477.331Z" fill="black" fill-opacity="0.02"/>
<path d="M1115.53 408.855V478.701H1045.69V408.855H1115.53ZM1047.05 477.331H1114.16V410.225H1047.05V477.331Z" fill="black" fill-opacity="0.02"/>
<path d="M1185.38 408.855V478.701H1115.53V408.855H1185.38ZM1116.9 477.331H1184.01V410.225H1116.9V477.331Z" fill="black" fill-opacity="0.02"/>
<path d="M1255.22 408.855V478.701H1185.38V408.855H1255.22ZM1186.75 477.331H1253.85V410.225H1186.75V477.331Z" fill="black" fill-opacity="0.02"/>
<path d="M1325.07 408.855V478.701H1255.22V408.855H1325.07ZM1256.59 477.331H1323.7V410.225H1256.59V477.331Z" fill="black" fill-opacity="0.02"/>
<path d="M1394.91 408.855V478.701H1325.07V408.855H1394.91ZM1326.44 477.331H1393.54V410.225H1326.44V477.331Z" fill="black" fill-opacity="0.02"/>
<path d="M1464.76 408.855V478.701H1394.91V408.855H1464.76ZM1396.28 477.331H1463.39V410.225H1396.28V477.331Z" fill="black" fill-opacity="0.02"/>
<path d="M67.8457 477.332V547.178H-2V477.332H67.8457ZM-0.630859 545.808H66.4756V478.701H-0.630859V545.808Z" fill="black" fill-opacity="0.02"/>
<path d="M137.691 477.332V547.178H67.8457V477.332H137.691ZM69.2148 545.808H136.321V478.701H69.2148V545.808Z" fill="black" fill-opacity="0.02"/>
<path d="M207.537 477.332V547.178H137.691V477.332H207.537ZM139.061 545.808H206.167V478.701H139.061V545.808Z" fill="black" fill-opacity="0.02"/>
<path d="M277.383 477.332V547.178H207.537V477.332H277.383ZM208.906 545.808H276.013V478.701H208.906V545.808Z" fill="black" fill-opacity="0.02"/>
<path d="M347.229 477.332V547.178H277.383V477.332H347.229ZM278.752 545.808H345.858V478.701H278.752V545.808Z" fill="black" fill-opacity="0.02"/>
<path d="M417.074 477.332V547.178H347.229V477.332H417.074ZM348.598 545.808H415.704V478.701H348.598V545.808Z" fill="black" fill-opacity="0.02"/>
<path d="M486.92 477.332V547.178H417.074V477.332H486.92ZM418.443 545.808H485.55V478.701H418.443V545.808Z" fill="black" fill-opacity="0.02"/>
<path d="M556.766 477.332V547.178H486.92V477.332H556.766ZM488.289 545.808H555.396V478.701H488.289V545.808Z" fill="black" fill-opacity="0.02"/>
<path d="M556.766 477.332H625.242V545.808H556.766V477.332Z" fill="black" fill-opacity="0.03"/>
<path d="M695.088 477.332V547.178H625.242V477.332H695.088ZM626.611 545.808H693.718V478.701H626.611V545.808Z" fill="black" fill-opacity="0.02"/>
<path d="M764.934 477.332V547.178H695.088V477.332H764.934ZM696.457 545.808H763.563V478.701H696.457V545.808Z" fill="black" fill-opacity="0.02"/>
<path d="M834.779 477.332V547.178H764.934V477.332H834.779ZM766.303 545.808H833.409V478.701H766.303V545.808Z" fill="black" fill-opacity="0.02"/>
<path d="M904.625 477.332V547.178H834.779V477.332H904.625ZM836.148 545.808H903.255V478.701H836.148V545.808Z" fill="black" fill-opacity="0.02"/>
<path d="M974.471 477.332V547.178H904.625V477.332H974.471ZM905.994 545.808H973.101V478.701H905.994V545.808Z" fill="black" fill-opacity="0.02"/>
<path d="M1044.32 477.332V547.178H974.471V477.332H1044.32ZM975.84 545.808H1042.95V478.701H975.84V545.808Z" fill="black" fill-opacity="0.02"/>
<path d="M1114.16 477.332V547.178H1044.32V477.332H1114.16ZM1045.69 545.808H1112.79V478.701H1045.69V545.808Z" fill="black" fill-opacity="0.02"/>
<path d="M1184.01 477.332V547.178H1114.16V477.332H1184.01ZM1115.53 545.808H1182.64V478.701H1115.53V545.808Z" fill="black" fill-opacity="0.02"/>
<path d="M1253.85 477.332V547.178H1184.01V477.332H1253.85ZM1185.38 545.808H1252.48V478.701H1185.38V545.808Z" fill="black" fill-opacity="0.02"/>
<path d="M1323.7 477.332V547.178H1253.85V477.332H1323.7ZM1255.22 545.808H1322.33V478.701H1255.22V545.808Z" fill="black" fill-opacity="0.02"/>
<path d="M1393.54 477.332V547.178H1323.7V477.332H1393.54ZM1325.07 545.808H1392.17V478.701H1325.07V545.808Z" fill="black" fill-opacity="0.02"/>
<path d="M1463.39 477.332V547.178H1393.54V477.332H1463.39ZM1394.91 545.808H1462.02V478.701H1394.91V545.808Z" fill="black" fill-opacity="0.02"/>
<path d="M1533.24 477.332V547.178H1463.39V477.332H1533.24ZM1464.76 545.808H1531.87V478.701H1464.76V545.808Z" fill="black" fill-opacity="0.02"/>
<path d="M67.8457 545.809V615.654H-2V545.809H67.8457ZM-0.630859 614.284H66.4756V547.178H-0.630859V614.284Z" fill="black" fill-opacity="0.02"/>
<path d="M137.691 545.809V615.654H67.8457V545.809H137.691ZM69.2148 614.284H136.321V547.178H69.2148V614.284Z" fill="black" fill-opacity="0.02"/>
<path d="M207.537 545.809V615.654H137.691V545.809H207.537ZM139.061 614.284H206.167V547.178H139.061V614.284Z" fill="black" fill-opacity="0.02"/>
<path d="M277.383 545.809V615.654H207.537V545.809H277.383ZM208.906 614.284H276.013V547.178H208.906V614.284Z" fill="black" fill-opacity="0.02"/>
<path d="M277.383 545.809H345.859V614.285H277.383V545.809Z" fill="black" fill-opacity="0.03"/>
<path d="M415.705 545.809V615.654H345.859V545.809H415.705ZM347.229 614.284H414.335V547.178H347.229V614.284Z" fill="black" fill-opacity="0.02"/>
<path d="M485.551 545.809V615.654H415.705V545.809H485.551ZM417.074 614.284H484.181V547.178H417.074V614.284Z" fill="black" fill-opacity="0.02"/>
<path d="M555.396 545.809V615.654H485.551V545.809H555.396ZM486.92 614.284H554.026V547.178H486.92V614.284Z" fill="black" fill-opacity="0.02"/>
<path d="M625.242 545.809V615.654H555.396V545.809H625.242ZM556.766 614.284H623.872V547.178H556.766V614.284Z" fill="black" fill-opacity="0.02"/>
<path d="M695.088 545.809V615.654H625.242V545.809H695.088ZM626.611 614.284H693.718V547.178H626.611V614.284Z" fill="black" fill-opacity="0.02"/>
<path d="M764.934 545.809V615.654H695.088V545.809H764.934ZM696.457 614.284H763.563V547.178H696.457V614.284Z" fill="black" fill-opacity="0.02"/>
<path d="M834.779 545.809V615.654H764.934V545.809H834.779ZM766.303 614.284H833.409V547.178H766.303V614.284Z" fill="black" fill-opacity="0.02"/>
<path d="M904.625 545.809V615.654H834.779V545.809H904.625ZM836.148 614.284H903.255V547.178H836.148V614.284Z" fill="black" fill-opacity="0.02"/>
<path d="M974.471 545.809V615.654H904.625V545.809H974.471ZM905.994 614.284H973.101V547.178H905.994V614.284Z" fill="black" fill-opacity="0.02"/>
<path d="M1044.32 545.809V615.654H974.471V545.809H1044.32ZM975.84 614.284H1042.95V547.178H975.84V614.284Z" fill="black" fill-opacity="0.02"/>
<path d="M1114.16 545.809V615.654H1044.32V545.809H1114.16ZM1045.69 614.284H1112.79V547.178H1045.69V614.284Z" fill="black" fill-opacity="0.02"/>
<path d="M1184.01 545.809V615.654H1114.16V545.809H1184.01ZM1115.53 614.284H1182.64V547.178H1115.53V614.284Z" fill="black" fill-opacity="0.02"/>
<path d="M1253.85 545.809V615.654H1184.01V545.809H1253.85ZM1185.38 614.284H1252.48V547.178H1185.38V614.284Z" fill="black" fill-opacity="0.02"/>
<path d="M1323.7 545.809V615.654H1253.85V545.809H1323.7ZM1255.22 614.284H1322.33V547.178H1255.22V614.284Z" fill="black" fill-opacity="0.02"/>
<path d="M1393.54 545.809V615.654H1323.7V545.809H1393.54ZM1325.07 614.284H1392.17V547.178H1325.07V614.284Z" fill="black" fill-opacity="0.02"/>
<path d="M1463.39 545.809V615.654H1393.54V545.809H1463.39ZM1394.91 614.284H1462.02V547.178H1394.91V614.284Z" fill="black" fill-opacity="0.02"/>
<path d="M1533.24 545.809V615.654H1463.39V545.809H1533.24ZM1464.76 614.284H1531.87V547.178H1464.76V614.284Z" fill="black" fill-opacity="0.02"/>
<path d="M67.8457 614.285V684.131H-2V614.285H67.8457ZM-0.630859 682.761H66.4756V615.654H-0.630859V682.761Z" fill="black" fill-opacity="0.02"/>
<path d="M137.691 614.285V684.131H67.8457V614.285H137.691ZM69.2148 682.761H136.321V615.654H69.2148V682.761Z" fill="black" fill-opacity="0.02"/>
<path d="M207.537 614.285V684.131H137.691V614.285H207.537ZM139.061 682.761H206.167V615.654H139.061V682.761Z" fill="black" fill-opacity="0.02"/>
<path d="M277.383 614.285V684.131H207.537V614.285H277.383ZM208.906 682.761H276.013V615.654H208.906V682.761Z" fill="black" fill-opacity="0.02"/>
<path d="M347.229 614.285V684.131H277.383V614.285H347.229ZM278.752 682.761H345.858V615.654H278.752V682.761Z" fill="black" fill-opacity="0.02"/>
<path d="M417.074 614.285V684.131H347.229V614.285H417.074ZM348.598 682.761H415.704V615.654H348.598V682.761Z" fill="black" fill-opacity="0.02"/>
<path d="M486.92 614.285V684.131H417.074V614.285H486.92ZM418.443 682.761H485.55V615.654H418.443V682.761Z" fill="black" fill-opacity="0.02"/>
<path d="M556.766 614.285V684.131H486.92V614.285H556.766ZM488.289 682.761H555.396V615.654H488.289V682.761Z" fill="black" fill-opacity="0.02"/>
<path d="M626.611 614.285V684.131H556.766V614.285H626.611ZM558.135 682.761H625.241V615.654H558.135V682.761Z" fill="black" fill-opacity="0.02"/>
<path d="M696.457 614.285V684.131H626.611V614.285H696.457ZM627.98 682.761H695.087V615.654H627.98V682.761Z" fill="black" fill-opacity="0.02"/>
<path d="M766.303 614.285V684.131H696.457V614.285H766.303ZM697.826 682.761H764.933V615.654H697.826V682.761Z" fill="black" fill-opacity="0.02"/>
<path d="M836.148 614.285V684.131H766.303V614.285H836.148ZM767.672 682.761H834.778V615.654H767.672V682.761Z" fill="black" fill-opacity="0.02"/>
<path d="M905.994 614.285V684.131H836.148V614.285H905.994ZM837.518 682.761H904.624V615.654H837.518V682.761Z" fill="black" fill-opacity="0.02"/>
<path d="M975.84 614.285V684.131H905.994V614.285H975.84ZM907.363 682.761H974.47V615.654H907.363V682.761Z" fill="black" fill-opacity="0.02"/>
<path d="M1045.69 614.285V684.131H975.84V614.285H1045.69ZM977.209 682.761H1044.32V615.654H977.209V682.761Z" fill="black" fill-opacity="0.02"/>
<path d="M1115.53 614.285V684.131H1045.69V614.285H1115.53ZM1047.05 682.761H1114.16V615.654H1047.05V682.761Z" fill="black" fill-opacity="0.02"/>
<path d="M1185.38 614.285V684.131H1115.53V614.285H1185.38ZM1116.9 682.761H1184.01V615.654H1116.9V682.761Z" fill="black" fill-opacity="0.02"/>
<path d="M1255.22 614.285V684.131H1185.38V614.285H1255.22ZM1186.75 682.761H1253.85V615.654H1186.75V682.761Z" fill="black" fill-opacity="0.02"/>
<path d="M1325.07 614.285V684.131H1255.22V614.285H1325.07ZM1256.59 682.761H1323.7V615.654H1256.59V682.761Z" fill="black" fill-opacity="0.02"/>
<path d="M1394.91 614.285V684.131H1325.07V614.285H1394.91ZM1326.44 682.761H1393.54V615.654H1326.44V682.761Z" fill="black" fill-opacity="0.02"/>
<path d="M1464.76 614.285V684.131H1394.91V614.285H1464.76ZM1396.28 682.761H1463.39V615.654H1396.28V682.761Z" fill="black" fill-opacity="0.02"/>
<path d="M67.8457 682.762V752.607H-2V682.762H67.8457ZM-0.630859 751.237H66.4756V684.131H-0.630859V751.237Z" fill="black" fill-opacity="0.02"/>
<path d="M137.691 682.762V752.607H67.8457V682.762H137.691ZM69.2148 751.237H136.321V684.131H69.2148V751.237Z" fill="black" fill-opacity="0.02"/>
<path d="M207.537 682.762V752.607H137.691V682.762H207.537ZM139.061 751.237H206.167V684.131H139.061V751.237Z" fill="black" fill-opacity="0.02"/>
<path d="M277.383 682.762V752.607H207.537V682.762H277.383ZM208.906 751.237H276.013V684.131H208.906V751.237Z" fill="black" fill-opacity="0.02"/>
<path d="M347.229 682.762V752.607H277.383V682.762H347.229ZM278.752 751.237H345.858V684.131H278.752V751.237Z" fill="black" fill-opacity="0.02"/>
<path d="M417.074 682.762V752.607H347.229V682.762H417.074ZM348.598 751.237H415.704V684.131H348.598V751.237Z" fill="black" fill-opacity="0.02"/>
<path d="M486.92 682.762V752.607H417.074V682.762H486.92ZM418.443 751.237H485.55V684.131H418.443V751.237Z" fill="black" fill-opacity="0.02"/>
<path d="M556.766 682.762V752.607H486.92V682.762H556.766ZM488.289 751.237H555.396V684.131H488.289V751.237Z" fill="black" fill-opacity="0.02"/>
<path d="M626.611 682.762V752.607H556.766V682.762H626.611ZM558.135 751.237H625.241V684.131H558.135V751.237Z" fill="black" fill-opacity="0.02"/>
<path d="M696.457 682.762V752.607H626.611V682.762H696.457ZM627.98 751.237H695.087V684.131H627.98V751.237Z" fill="black" fill-opacity="0.02"/>
<path d="M766.303 682.762V752.607H696.457V682.762H766.303ZM697.826 751.237H764.933V684.131H697.826V751.237Z" fill="black" fill-opacity="0.02"/>
<path d="M836.148 682.762V752.607H766.303V682.762H836.148ZM767.672 751.237H834.778V684.131H767.672V751.237Z" fill="black" fill-opacity="0.02"/>
<path d="M905.994 682.762V752.607H836.148V682.762H905.994ZM837.518 751.237H904.624V684.131H837.518V751.237Z" fill="black" fill-opacity="0.02"/>
<path d="M975.84 682.762V752.607H905.994V682.762H975.84ZM907.363 751.237H974.47V684.131H907.363V751.237Z" fill="black" fill-opacity="0.02"/>
<path d="M1045.69 682.762V752.607H975.84V682.762H1045.69ZM977.209 751.237H1044.32V684.131H977.209V751.237Z" fill="black" fill-opacity="0.02"/>
<path d="M1115.53 682.762V752.607H1045.69V682.762H1115.53ZM1047.05 751.237H1114.16V684.131H1047.05V751.237Z" fill="black" fill-opacity="0.02"/>
<path d="M1185.38 682.762V752.607H1115.53V682.762H1185.38ZM1116.9 751.237H1184.01V684.131H1116.9V751.237Z" fill="black" fill-opacity="0.02"/>
<path d="M1255.22 682.762V752.607H1185.38V682.762H1255.22ZM1186.75 751.237H1253.85V684.131H1186.75V751.237Z" fill="black" fill-opacity="0.02"/>
<path d="M1325.07 682.762V752.607H1255.22V682.762H1325.07ZM1256.59 751.237H1323.7V684.131H1256.59V751.237Z" fill="black" fill-opacity="0.02"/>
<path d="M1394.91 682.762V752.607H1325.07V682.762H1394.91ZM1326.44 751.237H1393.54V684.131H1326.44V751.237Z" fill="black" fill-opacity="0.02"/>
<path d="M1464.76 682.762V752.607H1394.91V682.762H1464.76ZM1396.28 751.237H1463.39V684.131H1396.28V751.237Z" fill="black" fill-opacity="0.02"/>
<path d="M67.8457 751.238V821.084H-2V751.238H67.8457ZM-0.630859 819.714H66.4756V752.607H-0.630859V819.714Z" fill="black" fill-opacity="0.02"/>
<path d="M137.691 751.238V821.084H67.8457V751.238H137.691ZM69.2148 819.714H136.321V752.607H69.2148V819.714Z" fill="black" fill-opacity="0.02"/>
<path d="M207.537 751.238V821.084H137.691V751.238H207.537ZM139.061 819.714H206.167V752.607H139.061V819.714Z" fill="black" fill-opacity="0.02"/>
<path d="M277.383 751.238V821.084H207.537V751.238H277.383ZM208.906 819.714H276.013V752.607H208.906V819.714Z" fill="black" fill-opacity="0.02"/>
<path d="M347.229 751.238V821.084H277.383V751.238H347.229ZM278.752 819.714H345.858V752.607H278.752V819.714Z" fill="black" fill-opacity="0.02"/>
<path d="M417.074 751.238V821.084H347.229V751.238H417.074ZM348.598 819.714H415.704V752.607H348.598V819.714Z" fill="black" fill-opacity="0.02"/>
<path d="M486.92 751.238V821.084H417.074V751.238H486.92ZM418.443 819.714H485.55V752.607H418.443V819.714Z" fill="black" fill-opacity="0.02"/>
<path d="M556.766 751.238V821.084H486.92V751.238H556.766ZM488.289 819.714H555.396V752.607H488.289V819.714Z" fill="black" fill-opacity="0.02"/>
<path d="M626.611 751.238V821.084H556.766V751.238H626.611ZM558.135 819.714H625.241V752.607H558.135V819.714Z" fill="black" fill-opacity="0.02"/>
<path d="M696.457 751.238V821.084H626.611V751.238H696.457ZM627.98 819.714H695.087V752.607H627.98V819.714Z" fill="black" fill-opacity="0.02"/>
<path d="M766.303 751.238V821.084H696.457V751.238H766.303ZM697.826 819.714H764.933V752.607H697.826V819.714Z" fill="black" fill-opacity="0.02"/>
<path d="M836.148 751.238V821.084H766.303V751.238H836.148ZM767.672 819.714H834.778V752.607H767.672V819.714Z" fill="black" fill-opacity="0.02"/>
<path d="M905.994 751.238V821.084H836.148V751.238H905.994ZM837.518 819.714H904.624V752.607H837.518V819.714Z" fill="black" fill-opacity="0.02"/>
<path d="M975.84 751.238V821.084H905.994V751.238H975.84ZM907.363 819.714H974.47V752.607H907.363V819.714Z" fill="black" fill-opacity="0.02"/>
<path d="M1045.69 751.238V821.084H975.84V751.238H1045.69ZM977.209 819.714H1044.32V752.607H977.209V819.714Z" fill="black" fill-opacity="0.02"/>
<path d="M1115.53 751.238V821.084H1045.69V751.238H1115.53ZM1047.05 819.714H1114.16V752.607H1047.05V819.714Z" fill="black" fill-opacity="0.02"/>
<path d="M1185.38 751.238V821.084H1115.53V751.238H1185.38ZM1116.9 819.714H1184.01V752.607H1116.9V819.714Z" fill="black" fill-opacity="0.02"/>
<path d="M1255.22 751.238V821.084H1185.38V751.238H1255.22ZM1186.75 819.714H1253.85V752.607H1186.75V819.714Z" fill="black" fill-opacity="0.02"/>
<path d="M1325.07 751.238V821.084H1255.22V751.238H1325.07ZM1256.59 819.714H1323.7V752.607H1256.59V819.714Z" fill="black" fill-opacity="0.02"/>
<path d="M1394.91 751.238V821.084H1325.07V751.238H1394.91ZM1326.44 819.714H1393.54V752.607H1326.44V819.714Z" fill="black" fill-opacity="0.02"/>
<path d="M1464.76 751.238V821.084H1394.91V751.238H1464.76ZM1396.28 819.714H1463.39V752.607H1396.28V819.714Z" fill="black" fill-opacity="0.02"/>
<path d="M67.8457 819.715V889.561H-2V819.715H67.8457ZM-0.630859 888.19H66.4756V821.084H-0.630859V888.19Z" fill="black" fill-opacity="0.02"/>
<path d="M137.691 819.715V889.561H67.8457V819.715H137.691ZM69.2148 888.19H136.321V821.084H69.2148V888.19Z" fill="black" fill-opacity="0.02"/>
<path d="M207.537 819.715V889.561H137.691V819.715H207.537ZM139.061 888.19H206.167V821.084H139.061V888.19Z" fill="black" fill-opacity="0.02"/>
<path d="M277.383 819.715V889.561H207.537V819.715H277.383ZM208.906 888.19H276.013V821.084H208.906V888.19Z" fill="black" fill-opacity="0.02"/>
<path d="M347.229 819.715V889.561H277.383V819.715H347.229ZM278.752 888.19H345.858V821.084H278.752V888.19Z" fill="black" fill-opacity="0.02"/>
<path d="M417.074 819.715V889.561H347.229V819.715H417.074ZM348.598 888.19H415.704V821.084H348.598V888.19Z" fill="black" fill-opacity="0.02"/>
<path d="M486.92 819.715V889.561H417.074V819.715H486.92ZM418.443 888.19H485.55V821.084H418.443V888.19Z" fill="black" fill-opacity="0.02"/>
<path d="M556.766 819.715V889.561H486.92V819.715H556.766ZM488.289 888.19H555.396V821.084H488.289V888.19Z" fill="black" fill-opacity="0.02"/>
<path d="M626.611 819.715V889.561H556.766V819.715H626.611ZM558.135 888.19H625.241V821.084H558.135V888.19Z" fill="black" fill-opacity="0.02"/>
<path d="M696.457 819.715V889.561H626.611V819.715H696.457ZM627.98 888.19H695.087V821.084H627.98V888.19Z" fill="black" fill-opacity="0.02"/>
<path d="M766.303 819.715V889.561H696.457V819.715H766.303ZM697.826 888.19H764.933V821.084H697.826V888.19Z" fill="black" fill-opacity="0.02"/>
<path d="M836.148 819.715V889.561H766.303V819.715H836.148ZM767.672 888.19H834.778V821.084H767.672V888.19Z" fill="black" fill-opacity="0.02"/>
<path d="M905.994 819.715V889.561H836.148V819.715H905.994ZM837.518 888.19H904.624V821.084H837.518V888.19Z" fill="black" fill-opacity="0.02"/>
<path d="M975.84 819.715V889.561H905.994V819.715H975.84ZM907.363 888.19H974.47V821.084H907.363V888.19Z" fill="black" fill-opacity="0.02"/>
<path d="M1045.69 819.715V889.561H975.84V819.715H1045.69ZM977.209 888.19H1044.32V821.084H977.209V888.19Z" fill="black" fill-opacity="0.02"/>
<path d="M1115.53 819.715V889.561H1045.69V819.715H1115.53ZM1047.05 888.19H1114.16V821.084H1047.05V888.19Z" fill="black" fill-opacity="0.02"/>
<path d="M1185.38 819.715V889.561H1115.53V819.715H1185.38ZM1116.9 888.19H1184.01V821.084H1116.9V888.19Z" fill="black" fill-opacity="0.02"/>
<path d="M1255.22 819.715V889.561H1185.38V819.715H1255.22ZM1186.75 888.19H1253.85V821.084H1186.75V888.19Z" fill="black" fill-opacity="0.02"/>
<path d="M1325.07 819.715V889.561H1255.22V819.715H1325.07ZM1256.59 888.19H1323.7V821.084H1256.59V888.19Z" fill="black" fill-opacity="0.02"/>
<path d="M1394.91 819.715V889.561H1325.07V819.715H1394.91ZM1326.44 888.19H1393.54V821.084H1326.44V888.19Z" fill="black" fill-opacity="0.02"/>
<path d="M1464.76 819.715V889.561H1394.91V819.715H1464.76ZM1396.28 888.19H1463.39V821.084H1396.28V888.19Z" fill="black" fill-opacity="0.02"/>
</g>
<defs>
<clipPath id="clip0_2040_14968">
<rect width="1599" height="822" fill="white" transform="translate(-2 -2)"/>
</clipPath>
</defs>
</svg>
