<svg width="47" height="40" viewBox="0 0 47 40" fill="none" xmlns="http://www.w3.org/2000/svg">
<g clip-path="url(#clip0_1966_5582)">
<path d="M30.1995 5.08743C22.1323 3.04068 14.6938 3.2681 7.22188 6.29611C12.2878 0.753886 27.1108 0.227459 34.0665 3.96719C31.9603 6.33822 29.804 8.57869 27.2315 10.3812C26.5072 10.8908 25.7621 10.916 24.8713 10.697C22.0408 10.0021 19.1519 9.53889 16.2339 9.73262C12.6999 9.96425 9.1783 10.3854 6.20204 12.6343C4.68685 13.7798 3.35065 15.0558 2.7887 17.0015C1.95618 19.8948 3.10922 21.9541 5.99391 22.7164C8.61635 23.4071 11.0973 22.6996 13.5157 21.8994C19.7264 19.8442 25.1211 16.2729 30.1329 12.1289C32.8053 9.91792 35.2529 7.43319 37.9836 4.90213C37.1635 4.42624 36.6099 4.10196 35.8315 3.64713C36.4351 3.22177 36.9263 2.79221 37.484 2.49741C39.02 1.68882 40.5769 0.922342 42.1378 0.1685C42.9412 -0.21895 43.4199 0.0884827 43.2493 0.934977C42.808 3.10807 42.2877 5.2601 41.8048 7.38265C41.4344 7.35738 41.2678 7.39528 41.1888 7.3279C39.8775 6.24136 39.8526 6.21188 38.7869 7.3658C33.9666 12.5711 28.5178 16.9594 22.4071 20.5307C18.9646 22.5437 15.3639 24.1651 11.4886 25.0369C9.68614 25.4412 7.81297 25.6054 5.93979 25.298C1.36509 24.5526 -1.59869 20.0758 0.923851 14.9042C2.41406 11.8425 4.9366 9.92213 8.03359 8.80611C11.7133 7.47951 15.4888 6.71725 19.4391 7.41213C21.408 7.76168 23.3978 8.01015 25.3875 8.24178C25.8287 8.29231 26.3907 8.20387 26.7362 7.95119C27.7935 7.17629 28.7675 6.28768 30.2036 5.08743H30.1995Z" fill="#0F0D15"/>
<path d="M42.5085 12.6979C38.8662 16.425 34.995 19.8952 30.7866 22.9611C27.1734 25.5932 23.4229 27.9601 19.0647 29.1308C16.8793 29.7162 14.6773 29.8089 12.5335 28.9919C11.7968 28.7097 11.1474 28.1875 10.5854 27.4168C10.9393 27.4463 11.3056 27.4378 11.6511 27.5094C14.1861 28.0443 16.6254 27.5516 18.9898 26.7051C23.477 25.1005 27.3982 22.4852 31.1737 19.6004C34.8951 16.7577 38.1669 13.4391 41.3804 10.0489C42.3836 8.99186 42.4669 8.98343 43.5367 9.97312C45.0935 11.4092 46.3214 13.0264 46.7877 15.2121C47.3746 17.9664 46.7377 20.3374 45.031 22.4642C43.7864 24.0182 42.2379 25.1974 40.3772 25.888C39.1618 26.3387 38.579 27.1136 38.2293 28.4149C37.1637 32.3652 35.303 35.966 32.9178 39.2761C32.7638 39.4909 32.5224 39.6425 32.1353 39.9879C31.9396 39.234 31.7648 38.6571 31.6441 38.0675C31.361 36.6987 31.1446 35.3216 30.8324 33.9613C30.4702 32.3905 30.4369 32.4031 28.9509 32.6642C26.2743 33.1317 23.7185 32.6684 21.2584 31.5777C21.0211 31.4724 20.838 31.2534 20.6257 31.0849C20.7505 30.9249 20.8421 30.7438 20.8921 30.7564C24.0473 31.464 27.0652 30.7396 30.0748 29.8805C32.1769 29.2824 32.1852 29.3077 32.7763 31.3629C32.9678 32.0241 33.1426 32.6937 33.3882 33.5907C34.8992 31.346 35.4321 28.975 36.1563 26.6882C36.2812 26.2881 36.3936 25.8838 36.4727 25.4711C36.6017 24.7678 37.0055 24.4814 37.6882 24.2582C39.7404 23.5844 41.6926 22.6874 43.1329 20.9481C45.2183 18.4296 44.9769 14.8541 42.5168 12.6853L42.5085 12.6979Z" fill="#0F0D15"/>
</g>
<defs>
<clipPath id="clip0_1966_5582">
<rect width="47" height="40" fill="white"/>
</clipPath>
</defs>
</svg>
